<svg xmlns="http://www.w3.org/2000/svg" width="1000" height="500" viewBox="0 0 1000 500"><defs><marker id="arrow" markerWidth="10" markerHeight="7" refX="9" refY="3.5" orient="auto"><polygon points="0 0, 10 3.5, 0 7" fill="#64748b"/></marker><filter id="glow"><feGaussianBlur stdDeviation="3" result="coloredBlur"/><feMerge><feMergeNode in="coloredBlur"/><feMergeNode in="SourceGraphic"/></feMerge></filter></defs><rect width="1000" height="500" fill="#1a1a2e"/><rect width="1000" height="500" fill="url(#grid)" opacity="0.05"/><text x="500" y="40" fill="#e2e8f0" font-size="20" font-weight="bold" text-anchor="middle" font-family="Arial">Telegram AI Store Assistant — n8n Workflow</text><text x="500" y="62" fill="#64748b" font-size="12" text-anchor="middle" font-family="Arial">AI-powered Telegram bot with Mistral AI + Google Sheets inventory</text><rect x="40" y="120" width="150" height="80" rx="12" fill="#1e293b" stroke="#0088cc" stroke-width="2" filter="url(#glow)"/><circle cx="90" cy="155" r="22" fill="#0088cc"/><text x="90" y="161" fill="white" font-size="18" text-anchor="middle">✈</text><text x="115" y="148" fill="#e2e8f0" font-size="11" font-weight="bold" font-family="Arial">Telegram</text><text x="115" y="163" fill="#94a3b8" font-size="10" font-family="Arial">Trigger</text><text x="115" y="178" fill="#64748b" font-size="9" font-family="Arial">message</text><line x1="190" y1="160" x2="240" y2="160" stroke="#64748b" stroke-width="2" marker-end="url(#arrow)"/><rect x="240" y="120" width="150" height="80" rx="12" fill="#1e293b" stroke="#22c55e" stroke-width="2"/><rect x="258" y="138" width="28" height="22" rx="3" fill="#22c55e"/><text x="272" y="154" fill="white" font-size="14" text-anchor="middle">≡</text><text x="330" y="148" fill="#e2e8f0" font-size="11" font-weight="bold" font-family="Arial">Stock Data</text><text x="330" y="163" fill="#94a3b8" font-size="10" font-family="Arial">Google Sheets</text><text x="330" y="178" fill="#64748b" font-size="9" font-family="Arial">read inventory</text><line x1="390" y1="160" x2="440" y2="160" stroke="#64748b" stroke-width="2" marker-end="url(#arrow)"/><rect x="440" y="100" width="180" height="120" rx="12" fill="#1e293b" stroke="#f97316" stroke-width="2" filter="url(#glow)"/><rect x="458" y="118" width="30" height="24" rx="4" fill="#f97316"/><text x="473" y="135" fill="white" font-size="14" text-anchor="middle">🤖</text><text x="560" y="148" fill="#f97316" font-size="13" font-weight="bold" text-anchor="middle" font-family="Arial">AI Agent</text><text x="560" y="165" fill="#94a3b8" font-size="10" text-anchor="middle" font-family="Arial">Mistral Cloud</text><text x="560" y="180" fill="#64748b" font-size="9" text-anchor="middle" font-family="Arial">+ Simple Memory</text><text x="560" y="195" fill="#64748b" font-size="9" text-anchor="middle" font-family="Arial">LangChain Tools</text><line x1="620" y1="160" x2="680" y2="160" stroke="#64748b" stroke-width="2" marker-end="url(#arrow)"/><rect x="680" y="120" width="150" height="80" rx="12" fill="#1e293b" stroke="#0088cc" stroke-width="2"/><circle cx="728" cy="155" r="22" fill="#0088cc"/><text x="728" y="161" fill="white" font-size="18" text-anchor="middle">✈</text><text x="756" y="148" fill="#e2e8f0" font-size="11" font-weight="bold" font-family="Arial">Reply</text><text x="756" y="163" fill="#94a3b8" font-size="10" font-family="Arial">Telegram</text><text x="756" y="178" fill="#64748b" font-size="9" font-family="Arial">AI response</text><rect x="460" y="250" width="120" height="60" rx="8" fill="#0f172a" stroke="#f97316" stroke-width="1" stroke-dasharray="4"/><text x="520" y="275" fill="#f97316" font-size="10" text-anchor="middle" font-family="Arial">Mistral AI</text><text x="520" y="290" fill="#64748b" font-size="9" text-anchor="middle" font-family="Arial">Chat Model</text><line x1="530" y1="220" x2="520" y2="250" stroke="#f97316" stroke-width="1" stroke-dasharray="4"/><rect x="620" y="250" width="120" height="60" rx="8" fill="#0f172a" stroke="#8b5cf6" stroke-width="1" stroke-dasharray="4"/><text x="680" y="275" fill="#8b5cf6" font-size="10" text-anchor="middle" font-family="Arial">Memory</text><text x="680" y="290" fill="#64748b" font-size="9" text-anchor="middle" font-family="Arial">Conversation</text><line x1="590" y1="220" x2="680" y2="250" stroke="#8b5cf6" stroke-width="1" stroke-dasharray="4"/><rect x="30" y="360" width="200" height="50" rx="8" fill="#0f172a" stroke="#22c55e" stroke-width="1"/><text x="130" y="382" fill="#22c55e" font-size="11" font-weight="bold" text-anchor="middle" font-family="Arial">✓ Real-time AI Responses</text><text x="130" y="398" fill="#64748b" font-size="9" text-anchor="middle" font-family="Arial">Product search + recommendations</text><rect x="250" y="360" width="200" height="50" rx="8" fill="#0f172a" stroke="#0088cc" stroke-width="1"/><text x="350" y="382" fill="#0088cc" font-size="11" font-weight="bold" text-anchor="middle" font-family="Arial">✓ Live Inventory Check</text><text x="350" y="398" fill="#64748b" font-size="9" text-anchor="middle" font-family="Arial">Google Sheets integration</text><rect x="470" y="360" width="200" height="50" rx="8" fill="#0f172a" stroke="#8b5cf6" stroke-width="1"/><text x="570" y="382" fill="#8b5cf6" font-size="11" font-weight="bold" text-anchor="middle" font-family="Arial">✓ Conversation Memory</text><text x="570" y="398" fill="#64748b" font-size="9" text-anchor="middle" font-family="Arial">Context-aware chat</text><rect x="700" y="360" width="200" height="50" rx="8" fill="#0f172a" stroke="#f97316" stroke-width="1"/><text x="800" y="382" fill="#f97316" font-size="11" font-weight="bold" text-anchor="middle" font-family="Arial">✓ Arabic Language</text><text x="800" y="398" fill="#64748b" font-size="9" text-anchor="middle" font-family="Arial">Built for Arabic businesses</text><text x="500" y="460" fill="#334155" font-size="11" text-anchor="middle" font-family="Arial">Built with N8N • Mistral AI • LangChain • Google Sheets API • Telegram Bot API</text><text x="500" y="480" fill="#1e3a5f" font-size="10" text-anchor="middle" font-family="Arial">github.com/Benbrika8/telegram-ai-store-assistant</text></svg>
